<svg width="639" height="449" viewBox="0 0 639 449" fill="none" xmlns="http://www.w3.org/2000/svg">
<rect x="189.339" y="98.2209" width="332" height="303" rx="142" transform="rotate(8.8679 189.339 98.2209)" fill="#B2B1B9"/>
<path fill-rule="evenodd" clip-rule="evenodd" d="M282.932 419.489L330.358 426.889C360.551 431.6 390.005 426.426 415.426 413.771L221.249 147.802C194.609 168.259 175.14 198.143 168.334 233.444L163.816 262.405C154.775 337.95 207.15 407.666 282.932 419.489Z" fill="#595260"/>
<rect x="210.411" y="164.259" width="270" height="204" rx="87" transform="rotate(8.8679 210.411 164.259)" fill="#2C2E43"/>
<rect x="321.9" y="292.984" width="10" height="50" transform="rotate(8.8679 321.9 292.984)" fill="white"/>
<rect x="293.169" y="217.655" width="10" height="50" transform="rotate(8.8679 293.169 217.655)" fill="white"/>
<rect x="213.214" y="276.027" width="30" height="10" transform="rotate(8.8679 213.214 276.027)" fill="white"/>
<rect x="207.048" y="315.549" width="30" height="10" transform="rotate(8.8679 207.048 315.549)" fill="white"/>
<rect x="351.541" y="297.609" width="10" height="50" transform="rotate(8.8679 351.541 297.609)" fill="white"/>
<rect x="322.81" y="222.279" width="10" height="50" transform="rotate(8.8679 322.81 222.279)" fill="white"/>
<rect x="252.736" y="282.193" width="10" height="50" transform="rotate(8.8679 252.736 282.193)" fill="white"/>
<rect x="410.824" y="306.858" width="10" height="50" transform="rotate(8.8679 410.824 306.858)" fill="white"/>
<rect x="369.76" y="310.572" width="10" height="40" transform="rotate(8.8679 369.76 310.572)" fill="white"/>
<rect x="389.521" y="313.656" width="10" height="40" transform="rotate(8.8679 389.521 313.656)" fill="white"/>
<rect x="270.956" y="295.157" width="10" height="30" transform="rotate(8.8679 270.956 295.157)" fill="white"/>
<rect x="282.378" y="286.818" width="20" height="10" transform="rotate(8.8679 282.378 286.818)" fill="white"/>
<rect x="276.211" y="326.34" width="20" height="10" transform="rotate(8.8679 276.211 326.34)" fill="white"/>
<rect x="341.8" y="230.303" width="10" height="40" transform="rotate(8.8679 341.8 230.303)" fill="white"/>
<rect x="371.442" y="234.927" width="10" height="40" transform="rotate(8.8679 371.442 234.927)" fill="white"/>
<rect x="352.451" y="226.904" width="20" height="10" transform="rotate(8.8679 352.451 226.904)" fill="white"/>
<rect x="346.285" y="266.426" width="20" height="10" transform="rotate(8.8679 346.285 266.426)" fill="white"/>
<rect x="329.468" y="309.346" width="10" height="10" transform="rotate(8.8679 329.468 309.346)" fill="white"/>
<rect x="300.737" y="234.017" width="10" height="10" transform="rotate(8.8679 300.737 234.017)" fill="white"/>
<rect x="381.182" y="302.234" width="10" height="10" transform="rotate(8.8679 381.182 302.234)" fill="white"/>
<rect x="376.558" y="331.875" width="10" height="10" transform="rotate(8.8679 376.558 331.875)" fill="white"/>
<rect x="337.807" y="320.768" width="10" height="10" transform="rotate(8.8679 337.807 320.768)" fill="white"/>
<rect x="309.076" y="245.439" width="10" height="10" transform="rotate(8.8679 309.076 245.439)" fill="white"/>
<rect x="300.597" y="299.781" width="10" height="10" transform="rotate(8.8679 300.597 299.781)" fill="white"/>
<rect x="287.633" y="318.001" width="20" height="10" transform="rotate(8.8679 287.633 318.001)" fill="white"/>
<rect x="414.538" y="347.922" width="20" height="10" transform="rotate(8.8679 414.538 347.922)" fill="white"/>
<rect x="211.673" y="285.907" width="10" height="10" transform="rotate(8.8679 211.673 285.907)" fill="white"/>
<rect x="220.012" y="297.329" width="10" height="10" transform="rotate(8.8679 220.012 297.329)" fill="white"/>
<rect x="228.351" y="308.751" width="10" height="10" transform="rotate(8.8679 228.351 308.751)" fill="white"/>
<path d="M42.5 155C19.5 170.5 26 110.596 69 71C136.873 8.49998 182.938 8.51087 198.324 18.8374C205.819 23.8678 204.896 34.0636 202.079 42.4409C196.602 58.7282 186.16 75.764 174.091 90.9336C163.276 104.526 151.886 116.948 136.873 128.317C129.518 133.887 122.14 140.202 112.991 143.567C108.142 145.35 99.5084 139.474 101.481 135.254C108.348 120.557 128.257 103.019 143.646 92.1155C150.133 87.5196 166.285 79.3129 174.453 79.264C184.383 79.2045 188.114 88.1362 190.235 94.2575C195.412 109.206 188.021 127.443 173.48 142.195C170.986 144.724 161.503 154.984 157.336 151.4C151.562 146.435 161.551 138.502 167.603 134.293C171.744 131.412 181.325 123.145 187.494 122.749C201.681 121.838 201.146 138.979 200.781 146.513" stroke="#595260" stroke-width="8" stroke-linecap="round"/>
</svg>
