<svg width="658" height="472" viewBox="0 0 658 472" fill="none" xmlns="http://www.w3.org/2000/svg">
<path d="M516 92.636C516 82.1654 526.456 74.9164 536.261 78.5891L586.261 97.3169C592.119 99.5108 596 105.109 596 111.364V208.355C596 218.828 585.539 226.077 575.733 222.4L556 215L525.733 203.65C519.879 201.454 516 195.858 516 189.605V92.636Z" fill="#595260"/>
<path d="M510 95.636C510 85.1654 520.456 77.9164 530.261 81.5891L580.261 100.317C586.119 102.511 590 108.109 590 114.364V211.355C590 221.828 579.539 229.077 569.733 225.4L519.733 206.65C513.879 204.454 510 198.858 510 192.605V95.636Z" fill="#B2B1B9"/>
<path d="M550.659 116.191L560.659 120.808C565.439 123.015 568.5 127.8 568.5 133.065V179.541C568.5 189.397 558.281 195.93 549.335 191.795L539.335 187.172C534.558 184.964 531.5 180.181 531.5 174.918V128.447C531.5 118.594 541.714 112.061 550.659 116.191Z" fill="#B2B1B9" stroke="#2C2E43" stroke-width="3"/>
<path d="M315.5 259.5C315.5 259.5 399.6 190.888 433.5 237.5C453.5 265 435.29 277.604 420 320C409 350.5 403.242 368.332 425.5 387C441 400 521 405.5 547 378C581.47 341.541 517.146 334.836 486 295.5C455.455 256.922 452.706 205.648 495 180.5C513.5 169.5 547 157 547 157" stroke="#2C2E43" stroke-width="9" stroke-linecap="round"/>
<path d="M88.3003 342.672C44.3812 273.462 79.8493 181.496 158.867 159.698L215.641 144.036C274.755 127.729 336.787 157.834 360.551 214.364L365.237 225.512C393.395 292.492 357.13 369.083 287.473 389.751L233.34 405.812C181.065 421.323 124.844 400.26 95.6278 354.219L88.3003 342.672Z" fill="#B2B1B9"/>
<path fill-rule="evenodd" clip-rule="evenodd" d="M69.814 265.719C67.2959 291.505 72.9477 318.479 88.3003 342.672L95.6278 354.219C124.844 400.26 181.065 421.323 233.34 405.812L287.473 389.751C296.448 387.088 304.869 383.497 312.669 379.117L69.814 265.719Z" fill="#595260"/>
<path d="M125.92 343.842C112.65 300.337 137.137 253.729 180.722 240.726L252.905 219.191C309.6 202.276 364.963 249.458 357.686 308.173V308.173C353.724 340.139 331.398 366.959 300.64 376.523L228.888 398.834C185.477 412.332 139.184 387.325 125.92 343.842V343.842Z" fill="#2C2E43"/>
<rect x="277.609" y="315.569" width="50" height="20" transform="rotate(-18.4061 277.609 315.569)" fill="white"/>
<rect x="276.66" y="315.885" width="5" height="20" transform="rotate(-18.4061 276.66 315.885)" fill="#CDCDCD"/>
<rect x="281.404" y="314.306" width="5" height="20" transform="rotate(-18.4061 281.404 314.306)" fill="#E9E9E9"/>
<rect x="320.307" y="301.361" width="5" height="20" transform="rotate(-18.4061 320.307 301.361)" fill="#CDCDCD"/>
<rect x="315.562" y="302.939" width="5" height="20" transform="rotate(-18.4061 315.562 302.939)" fill="#E9E9E9"/>
<rect x="171.609" y="350.569" width="50" height="20" transform="rotate(-18.4061 171.609 350.569)" fill="white"/>
<rect x="170.66" y="350.885" width="5" height="20" transform="rotate(-18.4061 170.66 350.885)" fill="#CDCDCD"/>
<rect x="175.404" y="349.306" width="5" height="20" transform="rotate(-18.4061 175.404 349.306)" fill="#E9E9E9"/>
<rect x="214.307" y="336.361" width="5" height="20" transform="rotate(-18.4061 214.307 336.361)" fill="#CDCDCD"/>
<rect x="209.562" y="337.939" width="5" height="20" transform="rotate(-18.4061 209.562 337.939)" fill="#E9E9E9"/>
<rect x="242.945" y="364.961" width="38" height="10" transform="rotate(-19.1054 242.945 364.961)" fill="white"/>
<rect x="242" y="365.288" width="4" height="10" transform="rotate(-19.1054 242 365.288)" fill="#CDCDCD"/>
<rect x="245.78" y="363.979" width="4" height="10" transform="rotate(-19.1054 245.78 363.979)" fill="#E9E9E9"/>
<rect x="275.072" y="353.832" width="4" height="10" transform="rotate(-19.1054 275.072 353.832)" fill="#CDCDCD"/>
<rect x="271.292" y="355.142" width="4" height="10" transform="rotate(-19.1054 271.292 355.142)" fill="#E9E9E9"/>
<path d="M513.295 166.059L541.294 139.303L561.295 148.059L513.295 166.059Z" fill="#2C2E43"/>
<path d="M513.295 166.059L561.294 168.059L561.295 148.059L513.295 166.059Z" fill="#2C2E43"/>
<path d="M522 172L561.294 168.059L561.295 148.059L522 172Z" fill="#2C2E43"/>
<path d="M541.294 139.303L513.295 166.059L561.294 168.059L561.295 148.059L541.294 139.303Z" fill="#2C2E43"/>
<path d="M272 79.9875L252 36.9875L365 14.9875L312.018 70.7039L327 85.9875L309.374 102.439L336.642 105.372L299.779 135.797L309.339 114.735L282.394 116.243L301.154 90.867L272 79.9875Z" fill="#FFD523"/>
<path d="M348.309 100.362L348.309 74.3621L427.019 78.5398L372.502 101.862L382.002 117.862L358.945 126.097L358.945 134.575L330.456 148.085L348.309 134.575L340.101 126.097L365.002 113.362L348.309 100.362Z" fill="#FFD523"/>
</svg>
