<svg width="681" height="565" viewBox="0 0 681 565" fill="none" xmlns="http://www.w3.org/2000/svg">
<path d="M150 105L37.5 169.952L37.5 40.0481L150 105Z" fill="#FFD523"/>
<path d="M150 255L37.5 319.952L37.5 190.048L150 255Z" fill="#FFD523"/>
<path d="M150 405L37.5 469.952L37.5 340.048L150 405Z" fill="#FFD523"/>
<path d="M300 105L187.5 169.952L187.5 40.0481L300 105Z" fill="#FFD523"/>
<path d="M300 255L187.5 319.952L187.5 190.048L300 255Z" fill="#B2B1B9"/>
<path d="M300 405L187.5 469.952L187.5 340.048L300 405Z" fill="#FFD523"/>
<path d="M450 105L337.5 169.952V40.0481L450 105Z" fill="#FFD523"/>
<path d="M450 255L337.5 319.952V190.048L450 255Z" fill="#B2B1B9"/>
<path d="M450 405L337.5 469.952V340.048L450 405Z" fill="#B2B1B9"/>
<path d="M503.406 118.266C503.406 121.609 504.266 124.203 505.984 126.047C507.734 127.891 510.141 128.812 513.203 128.812C516.266 128.812 518.656 127.891 520.375 126.047C522.125 124.203 523 121.609 523 118.266C523 114.797 522.109 112.172 520.328 110.391C518.578 108.578 516.203 107.672 513.203 107.672C510.203 107.672 507.812 108.578 506.031 110.391C504.281 112.172 503.406 114.797 503.406 118.266ZM489.531 119.156C489.531 115.344 490.391 111.891 492.109 108.797C493.859 105.703 496.406 103.375 499.75 101.812C496.469 99.625 494.328 97.2656 493.328 94.7344C492.359 92.1719 491.875 89.7812 491.875 87.5625C491.875 82.625 493.734 78.4219 497.453 74.9531C501.172 71.4531 506.422 69.7031 513.203 69.7031C519.984 69.7031 525.234 71.4531 528.953 74.9531C532.672 78.4219 534.531 82.625 534.531 87.5625C534.531 89.7812 534.031 92.1719 533.031 94.7344C532.062 97.2656 529.938 99.4688 526.656 101.344C530 103.219 532.516 105.703 534.203 108.797C535.891 111.891 536.734 115.344 536.734 119.156C536.734 124.875 534.609 129.75 530.359 133.781C526.141 137.781 520.234 139.781 512.641 139.781C505.047 139.781 499.297 137.781 495.391 133.781C491.484 129.75 489.531 124.875 489.531 119.156ZM504.625 89.0625C504.625 91.5312 505.375 93.5469 506.875 95.1094C508.406 96.6719 510.516 97.4531 513.203 97.4531C515.922 97.4531 518.016 96.6719 519.484 95.1094C520.984 93.5469 521.734 91.5312 521.734 89.0625C521.734 86.375 520.984 84.2812 519.484 82.7812C518.016 81.25 515.922 80.4844 513.203 80.4844C510.516 80.4844 508.406 81.25 506.875 82.7812C505.375 84.2812 504.625 86.375 504.625 89.0625ZM557.078 104.672C557.078 112.484 557.719 118.469 559 122.625C560.281 126.75 562.906 128.812 566.875 128.812C570.844 128.812 573.438 126.75 574.656 122.625C575.906 118.469 576.531 112.484 576.531 104.672C576.531 96.4844 575.906 90.4219 574.656 86.4844C573.438 82.5469 570.844 80.5781 566.875 80.5781C562.906 80.5781 560.281 82.5469 559 86.4844C557.719 90.4219 557.078 96.4844 557.078 104.672ZM566.875 69.5625C575.531 69.5625 581.594 72.6094 585.062 78.7031C588.562 84.7969 590.312 93.4531 590.312 104.672C590.312 115.891 588.562 124.531 585.062 130.594C581.594 136.656 575.531 139.688 566.875 139.688C558.219 139.688 552.141 136.656 548.641 130.594C545.172 124.531 543.438 115.891 543.438 104.672C543.438 93.4531 545.172 84.7969 548.641 78.7031C552.141 72.6094 558.219 69.5625 566.875 69.5625ZM613.516 95.25C615.578 95.25 617.328 94.5312 618.766 93.0938C620.234 91.625 620.969 89.8594 620.969 87.7969C620.969 85.7344 620.234 83.9844 618.766 82.5469C617.328 81.0781 615.578 80.3438 613.516 80.3438C611.453 80.3438 609.688 81.0781 608.219 82.5469C606.781 83.9844 606.062 85.7344 606.062 87.7969C606.062 89.8594 606.781 91.625 608.219 93.0938C609.688 94.5312 611.453 95.25 613.516 95.25ZM630.953 87.7969C630.953 92.6094 629.25 96.7188 625.844 100.125C622.469 103.531 618.359 105.234 613.516 105.234C608.703 105.234 604.594 103.531 601.188 100.125C597.781 96.7188 596.078 92.6094 596.078 87.7969C596.078 82.9844 597.781 78.875 601.188 75.4688C604.594 72.0625 608.703 70.3594 613.516 70.3594C618.328 70.3594 622.438 72.0625 625.844 75.4688C629.25 78.875 630.953 82.9844 630.953 87.7969ZM666.531 121.922C666.531 119.859 665.797 118.109 664.328 116.672C662.891 115.203 661.141 114.469 659.078 114.469C657.016 114.469 655.25 115.203 653.781 116.672C652.344 118.109 651.625 119.859 651.625 121.922C651.625 123.984 652.344 125.75 653.781 127.219C655.25 128.656 657.016 129.375 659.078 129.375C661.141 129.375 662.891 128.656 664.328 127.219C665.797 125.75 666.531 123.984 666.531 121.922ZM676.516 121.922C676.516 126.734 674.812 130.844 671.406 134.25C668 137.656 663.891 139.359 659.078 139.359C654.266 139.359 650.156 137.656 646.75 134.25C643.344 130.844 641.641 126.734 641.641 121.922C641.641 117.078 643.344 112.969 646.75 109.594C650.156 106.188 654.266 104.484 659.078 104.484C663.891 104.484 668 106.188 671.406 109.594C674.812 113 676.516 117.109 676.516 121.922ZM651.625 70.0312H658.75L620.875 139.781H613.609L651.625 70.0312Z" fill="#B2B1B9"/>
<path d="M537.203 273.375H529.516V288H516.438V273.375H489.531V261.703L514.516 220.453H529.516V262.922H537.203V273.375ZM516.438 262.922V233.578L499.422 262.922H516.438ZM557.078 254.672C557.078 262.484 557.719 268.469 559 272.625C560.281 276.75 562.906 278.812 566.875 278.812C570.844 278.812 573.438 276.75 574.656 272.625C575.906 268.469 576.531 262.484 576.531 254.672C576.531 246.484 575.906 240.422 574.656 236.484C573.438 232.547 570.844 230.578 566.875 230.578C562.906 230.578 560.281 232.547 559 236.484C557.719 240.422 557.078 246.484 557.078 254.672ZM566.875 219.562C575.531 219.562 581.594 222.609 585.062 228.703C588.562 234.797 590.312 243.453 590.312 254.672C590.312 265.891 588.562 274.531 585.062 280.594C581.594 286.656 575.531 289.688 566.875 289.688C558.219 289.688 552.141 286.656 548.641 280.594C545.172 274.531 543.438 265.891 543.438 254.672C543.438 243.453 545.172 234.797 548.641 228.703C552.141 222.609 558.219 219.562 566.875 219.562ZM613.516 245.25C615.578 245.25 617.328 244.531 618.766 243.094C620.234 241.625 620.969 239.859 620.969 237.797C620.969 235.734 620.234 233.984 618.766 232.547C617.328 231.078 615.578 230.344 613.516 230.344C611.453 230.344 609.688 231.078 608.219 232.547C606.781 233.984 606.062 235.734 606.062 237.797C606.062 239.859 606.781 241.625 608.219 243.094C609.688 244.531 611.453 245.25 613.516 245.25ZM630.953 237.797C630.953 242.609 629.25 246.719 625.844 250.125C622.469 253.531 618.359 255.234 613.516 255.234C608.703 255.234 604.594 253.531 601.188 250.125C597.781 246.719 596.078 242.609 596.078 237.797C596.078 232.984 597.781 228.875 601.188 225.469C604.594 222.062 608.703 220.359 613.516 220.359C618.328 220.359 622.438 222.062 625.844 225.469C629.25 228.875 630.953 232.984 630.953 237.797ZM666.531 271.922C666.531 269.859 665.797 268.109 664.328 266.672C662.891 265.203 661.141 264.469 659.078 264.469C657.016 264.469 655.25 265.203 653.781 266.672C652.344 268.109 651.625 269.859 651.625 271.922C651.625 273.984 652.344 275.75 653.781 277.219C655.25 278.656 657.016 279.375 659.078 279.375C661.141 279.375 662.891 278.656 664.328 277.219C665.797 275.75 666.531 273.984 666.531 271.922ZM676.516 271.922C676.516 276.734 674.812 280.844 671.406 284.25C668 287.656 663.891 289.359 659.078 289.359C654.266 289.359 650.156 287.656 646.75 284.25C643.344 280.844 641.641 276.734 641.641 271.922C641.641 267.078 643.344 262.969 646.75 259.594C650.156 256.188 654.266 254.484 659.078 254.484C663.891 254.484 668 256.188 671.406 259.594C674.812 263 676.516 267.109 676.516 271.922ZM651.625 220.031H658.75L620.875 289.781H613.609L651.625 220.031Z" fill="#B2B1B9"/>
<path d="M504.406 416.484C504.406 420.141 505.391 423.125 507.359 425.438C509.328 427.75 511.828 428.906 514.859 428.906C517.828 428.906 520.156 427.797 521.844 425.578C523.562 423.328 524.422 420.422 524.422 416.859C524.422 412.891 523.453 409.859 521.516 407.766C519.578 405.641 517.203 404.578 514.391 404.578C512.109 404.578 510.094 405.266 508.344 406.641C505.719 408.672 504.406 411.953 504.406 416.484ZM523.203 387.141C523.203 386.047 522.781 384.844 521.938 383.531C520.5 381.406 518.328 380.344 515.422 380.344C511.078 380.344 507.984 382.781 506.141 387.656C505.141 390.344 504.453 394.312 504.078 399.562C505.734 397.594 507.656 396.156 509.844 395.25C512.031 394.344 514.531 393.891 517.344 393.891C523.375 393.891 528.312 395.938 532.156 400.031C536.031 404.125 537.969 409.359 537.969 415.734C537.969 422.078 536.078 427.672 532.297 432.516C528.516 437.359 522.641 439.781 514.672 439.781C506.109 439.781 499.797 436.203 495.734 429.047C492.578 423.453 491 416.234 491 407.391C491 402.203 491.219 397.984 491.656 394.734C492.438 388.953 493.953 384.141 496.203 380.297C498.141 377.016 500.672 374.375 503.797 372.375C506.953 370.375 510.719 369.375 515.094 369.375C521.406 369.375 526.438 371 530.188 374.25C533.938 377.469 536.047 381.766 536.516 387.141H523.203ZM558.078 404.672C558.078 412.484 558.719 418.469 560 422.625C561.281 426.75 563.906 428.812 567.875 428.812C571.844 428.812 574.438 426.75 575.656 422.625C576.906 418.469 577.531 412.484 577.531 404.672C577.531 396.484 576.906 390.422 575.656 386.484C574.438 382.547 571.844 380.578 567.875 380.578C563.906 380.578 561.281 382.547 560 386.484C558.719 390.422 558.078 396.484 558.078 404.672ZM567.875 369.562C576.531 369.562 582.594 372.609 586.062 378.703C589.562 384.797 591.312 393.453 591.312 404.672C591.312 415.891 589.562 424.531 586.062 430.594C582.594 436.656 576.531 439.688 567.875 439.688C559.219 439.688 553.141 436.656 549.641 430.594C546.172 424.531 544.438 415.891 544.438 404.672C544.438 393.453 546.172 384.797 549.641 378.703C553.141 372.609 559.219 369.562 567.875 369.562ZM614.516 395.25C616.578 395.25 618.328 394.531 619.766 393.094C621.234 391.625 621.969 389.859 621.969 387.797C621.969 385.734 621.234 383.984 619.766 382.547C618.328 381.078 616.578 380.344 614.516 380.344C612.453 380.344 610.688 381.078 609.219 382.547C607.781 383.984 607.062 385.734 607.062 387.797C607.062 389.859 607.781 391.625 609.219 393.094C610.688 394.531 612.453 395.25 614.516 395.25ZM631.953 387.797C631.953 392.609 630.25 396.719 626.844 400.125C623.469 403.531 619.359 405.234 614.516 405.234C609.703 405.234 605.594 403.531 602.188 400.125C598.781 396.719 597.078 392.609 597.078 387.797C597.078 382.984 598.781 378.875 602.188 375.469C605.594 372.062 609.703 370.359 614.516 370.359C619.328 370.359 623.438 372.062 626.844 375.469C630.25 378.875 631.953 382.984 631.953 387.797ZM667.531 421.922C667.531 419.859 666.797 418.109 665.328 416.672C663.891 415.203 662.141 414.469 660.078 414.469C658.016 414.469 656.25 415.203 654.781 416.672C653.344 418.109 652.625 419.859 652.625 421.922C652.625 423.984 653.344 425.75 654.781 427.219C656.25 428.656 658.016 429.375 660.078 429.375C662.141 429.375 663.891 428.656 665.328 427.219C666.797 425.75 667.531 423.984 667.531 421.922ZM677.516 421.922C677.516 426.734 675.812 430.844 672.406 434.25C669 437.656 664.891 439.359 660.078 439.359C655.266 439.359 651.156 437.656 647.75 434.25C644.344 430.844 642.641 426.734 642.641 421.922C642.641 417.078 644.344 412.969 647.75 409.594C651.156 406.188 655.266 404.484 660.078 404.484C664.891 404.484 669 406.188 672.406 409.594C675.812 413 677.516 417.109 677.516 421.922ZM652.625 370.031H659.75L621.875 439.781H614.609L652.625 370.031Z" fill="#B2B1B9"/>
</svg>
