<svg width="510" height="440" viewBox="0 0 510 440" fill="none" xmlns="http://www.w3.org/2000/svg">
<path fill-rule="evenodd" clip-rule="evenodd" d="M205 0H255V52.074C264.281 53.631 273.273 56.0404 281.893 59.2188L308 14L351.301 39L325.252 84.1191C332.542 90.1184 339.256 96.7922 345.299 104.045L390.41 78L415.41 121.301L370.463 147.252C373.799 156.131 376.317 165.411 377.926 175H430V225H377.926C376.352 234.382 373.907 243.468 370.677 252.174L415.41 278L390.41 321.301L345.691 295.482C339.61 302.841 332.841 309.61 325.482 315.691L351.301 360.41L308 385.41L282.174 340.677C273.468 343.907 264.382 346.352 255 347.926V400H205V347.926C195.411 346.317 186.131 343.799 177.252 340.463L151.301 385.41L108 360.41L134.045 315.299C126.792 309.256 120.118 302.542 114.119 295.252L69 321.301L44 278L89.2188 251.893C86.0404 243.273 83.631 234.281 82.074 225H30V175H82.074C83.6657 165.512 86.1481 156.326 89.4323 147.532L44 121.301L69 78L114.51 104.275C120.472 97.0907 127.091 90.4715 134.275 84.51L108 39L151.301 14L177.532 59.4323C186.326 56.1481 195.512 53.6657 205 52.074V0Z" fill="#C4C4C4"/>
<circle cx="230" cy="200" r="25" fill="white"/>
<path fill-rule="evenodd" clip-rule="evenodd" d="M380 386.85V440H330V386.85C320.701 384.456 311.925 380.759 303.879 375.964L266.355 413.487L231 378.132L268.656 340.476C264.045 332.607 260.48 324.052 258.15 315H205V265H258.15C260.512 255.824 264.143 247.159 268.846 239.201L231 201.355L266.355 166L304.201 203.845C312.159 199.143 320.825 195.512 330 193.15V140H380V193.15C389.052 195.48 397.607 199.045 405.476 203.656L443.132 166L478.487 201.355L440.964 238.879C445.759 246.925 449.456 255.701 451.85 265H505V315H451.85C449.488 324.175 445.857 332.841 441.155 340.799L478.487 378.132L443.132 413.487L405.799 376.154C397.841 380.857 389.176 384.488 380 386.85Z" fill="#595260"/>
<circle cx="355" cy="290" r="25" fill="white"/>
</svg>
